<svg data-v-423bf9ae="" xmlns="http://www.w3.org/2000/svg" viewBox="0 0 317.6938676309806 60" class="font"><!----><!----><!----><g data-v-423bf9ae="" id="3522040f-5b70-49e4-a19c-da005d697e36" fill="black" transform="matrix(6.1224488604322,0,0,6.1224488604322,-4.285713447451144,-15.000000238418579)"><path d="M0.70 12.02L0.70 12.02L0.70 2.67L0.70 2.67Q0.70 2.57 0.76 2.51L0.76 2.51L0.76 2.51Q0.82 2.45 0.92 2.45L0.92 2.45L2.03 2.45L2.03 2.45Q2.20 2.45 2.28 2.63L2.28 2.63L4.92 7.98L4.92 2.67L4.92 2.67Q4.92 2.45 5.14 2.45L5.14 2.45L6.45 2.45L6.45 2.45Q6.56 2.45 6.62 2.51L6.62 2.51L6.62 2.51Q6.68 2.57 6.68 2.67L6.68 2.67L6.68 12.02L6.68 12.02Q6.68 12.13 6.62 12.19L6.62 12.19L6.62 12.19Q6.56 12.25 6.45 12.25L6.45 12.25L5.35 12.25L5.35 12.25Q5.17 12.25 5.09 12.07L5.09 12.07L2.46 6.72L2.46 12.02L2.46 12.02Q2.46 12.25 2.24 12.25L2.24 12.25L0.92 12.25L0.92 12.25Q0.82 12.25 0.76 12.19L0.76 12.19L0.76 12.19Q0.70 12.13 0.70 12.02ZM8.07 2.67L8.07 12.02L8.07 12.02Q8.07 12.25 8.30 12.25L8.30 12.25L9.75 12.25L9.75 12.25Q9.86 12.25 9.92 12.19L9.92 12.19L9.92 12.19Q9.98 12.13 9.98 12.02L9.98 12.02L9.98 2.67L9.98 2.67Q9.98 2.57 9.92 2.51L9.92 2.51L9.92 2.51Q9.86 2.45 9.75 2.45L9.75 2.45L8.30 2.45L8.30 2.45Q8.07 2.45 8.07 2.67L8.07 2.67ZM11.38 12.02L11.38 12.02L11.38 2.67L11.38 2.67Q11.38 2.57 11.44 2.51L11.44 2.51L11.44 2.51Q11.50 2.45 11.60 2.45L11.60 2.45L12.71 2.45L12.71 2.45Q12.88 2.45 12.96 2.63L12.96 2.63L15.59 7.98L15.59 2.67L15.59 2.67Q15.59 2.45 15.82 2.45L15.82 2.45L17.13 2.45L17.13 2.45Q17.23 2.45 17.29 2.51L17.29 2.51L17.29 2.51Q17.36 2.57 17.36 2.67L17.36 2.67L17.36 12.02L17.36 12.02Q17.36 12.13 17.29 12.19L17.29 12.19L17.29 12.19Q17.23 12.25 17.13 12.25L17.13 12.25L16.02 12.25L16.02 12.25Q15.85 12.25 15.77 12.07L15.77 12.07L13.14 6.72L13.14 12.02L13.14 12.02Q13.14 12.25 12.92 12.25L12.92 12.25L11.60 12.25L11.60 12.25Q11.50 12.25 11.44 12.19L11.44 12.19L11.44 12.19Q11.38 12.13 11.38 12.02ZM18.75 10.23L18.75 10.23L18.75 8.78L18.75 8.78Q18.75 8.55 18.98 8.55L18.98 8.55L20.38 8.55L20.38 8.55Q20.48 8.55 20.54 8.61L20.54 8.61L20.54 8.61Q20.60 8.67 20.60 8.78L20.60 8.78L20.60 9.84L20.60 9.84Q20.60 10.40 21.16 10.40L21.16 10.40L21.89 10.40L21.89 10.40Q22.45 10.40 22.45 9.84L22.45 9.84L22.45 2.67L22.45 2.67Q22.45 2.45 22.67 2.45L22.67 2.45L24.13 2.45L24.13 2.45Q24.23 2.45 24.29 2.51L24.29 2.51L24.29 2.51Q24.36 2.57 24.36 2.67L24.36 2.67L24.36 10.23L24.36 10.23Q24.36 11.22 23.84 11.73L23.84 11.73L23.84 11.73Q23.32 12.25 22.34 12.25L22.34 12.25L20.77 12.25L20.77 12.25Q19.78 12.25 19.26 11.74L19.26 11.74L19.26 11.74Q18.75 11.22 18.75 10.23ZM25.35 12.01L25.35 12.01L27.67 2.65L27.67 2.65Q27.71 2.45 27.91 2.45L27.91 2.45L29.86 2.45L29.86 2.45Q30.06 2.45 30.10 2.65L30.10 2.65L32.42 12.01L32.42 12.01Q32.44 12.06 32.44 12.09L32.44 12.09L32.44 12.09Q32.44 12.25 32.22 12.25L32.22 12.25L30.86 12.25L30.86 12.25Q30.69 12.25 30.65 12.05L30.65 12.05L30.19 10.29L27.56 10.29L27.13 12.05L27.13 12.05Q27.09 12.25 26.91 12.25L26.91 12.25L25.53 12.25L25.53 12.25Q25.33 12.25 25.33 12.10L25.33 12.10L25.33 12.10Q25.33 12.06 25.35 12.01ZM28.88 4.86L28 8.67L29.76 8.67L28.88 4.86ZM33.55 12.02L33.55 12.02L33.55 2.67L33.55 2.67Q33.55 2.45 33.78 2.45L33.78 2.45L37.14 2.45L37.14 2.45Q38.13 2.45 38.65 2.96L38.65 2.96L38.65 2.96Q39.17 3.47 39.17 4.46L39.17 4.46L39.17 6.36L39.17 6.36Q39.17 6.74 38.92 7.01L38.92 7.01L38.92 7.01Q38.67 7.29 38.29 7.35L38.29 7.35L38.29 7.38L38.29 7.38Q38.67 7.44 38.92 7.71L38.92 7.71L38.92 7.71Q39.17 7.99 39.17 8.37L39.17 8.37L39.17 10.23L39.17 10.23Q39.17 11.22 38.65 11.74L38.65 11.74L38.65 11.74Q38.13 12.25 37.14 12.25L37.14 12.25L33.78 12.25L33.78 12.25Q33.67 12.25 33.61 12.19L33.61 12.19L33.61 12.19Q33.55 12.13 33.55 12.02ZM35.29 8.29L35.29 10.49L36.83 10.49L36.83 10.49Q37.39 10.49 37.39 9.93L37.39 9.93L37.39 8.85L37.39 8.85Q37.39 8.29 36.83 8.29L36.83 8.29L35.29 8.29ZM35.29 4.21L35.29 6.44L36.83 6.44L36.83 6.44Q37.11 6.44 37.25 6.30L37.25 6.30L37.25 6.30Q37.39 6.15 37.39 5.89L37.39 5.89L37.39 4.77L37.39 4.77Q37.39 4.21 36.83 4.21L36.83 4.21L35.29 4.21ZM40.56 12.02L40.56 12.02L40.56 2.67L40.56 2.67Q40.56 2.57 40.62 2.51L40.62 2.51L40.62 2.51Q40.68 2.45 40.78 2.45L40.78 2.45L45.93 2.45L45.93 2.45Q46.16 2.45 46.16 2.67L46.16 2.67L46.16 4.07L46.16 4.07Q46.16 4.31 45.93 4.31L45.93 4.31L42.47 4.31L42.47 6.47L45.10 6.47L45.10 6.47Q45.33 6.47 45.33 6.71L45.33 6.71L45.33 8.09L45.33 8.09Q45.33 8.33 45.10 8.33L45.10 8.33L42.47 8.33L42.47 10.40L45.93 10.40L45.93 10.40Q46.06 10.40 46.11 10.45L46.11 10.45L46.11 10.45Q46.16 10.50 46.16 10.62L46.16 10.62L46.16 12.02L46.16 12.02Q46.16 12.25 45.93 12.25L45.93 12.25L40.78 12.25L40.78 12.25Q40.68 12.25 40.62 12.19L40.62 12.19L40.62 12.19Q40.56 12.13 40.56 12.02ZM46.98 2.67L46.98 4.07L46.98 4.07Q46.98 4.18 47.04 4.24L47.04 4.24L47.04 4.24Q47.11 4.30 47.21 4.30L47.21 4.30L48.84 4.30L48.84 12.02L48.84 12.02Q48.84 12.25 49.06 12.25L49.06 12.25L50.52 12.25L50.52 12.25Q50.74 12.25 50.74 12.02L50.74 12.02L50.74 4.30L52.36 4.30L52.36 4.30Q52.59 4.30 52.59 4.07L52.59 4.07L52.59 2.67L52.59 2.67Q52.59 2.45 52.36 2.45L52.36 2.45L47.21 2.45L47.21 2.45Q47.11 2.45 47.04 2.51L47.04 2.51L47.04 2.51Q46.98 2.57 46.98 2.67L46.98 2.67Z"></path></g><!----><!----></svg>